<?xml version="1.0" encoding="UTF-8" standalone="no"?>
<svg
   xmlns:dc="http://purl.org/dc/elements/1.1/"
   xmlns:cc="http://creativecommons.org/ns#"
   xmlns:rdf="http://www.w3.org/1999/02/22-rdf-syntax-ns#"
   xmlns:svg="http://www.w3.org/2000/svg"
   xmlns="http://www.w3.org/2000/svg"
   viewBox="0 0 582.47083 384"
   height="384"
   width="582.47083"
   xml:space="preserve"
   id="svg2"
   version="1.1"><metadata
     id="metadata8"><rdf:RDF><cc:Work
         rdf:about=""><dc:format>image/svg+xml</dc:format><dc:type
           rdf:resource="http://purl.org/dc/dcmitype/StillImage" /><dc:title></dc:title></cc:Work></rdf:RDF></metadata><defs
     id="defs6"><clipPath
       id="clipPath24"
       clipPathUnits="userSpaceOnUse"><path
         id="path22"
         d="M 58.852,34.559 H 393.653 V 252 H 58.852 Z" /></clipPath><clipPath
       id="clipPath34"
       clipPathUnits="userSpaceOnUse"><path
         id="path32"
         d="M 0,0 H 437 V 288 H 0 Z" /></clipPath><clipPath
       id="clipPath56"
       clipPathUnits="userSpaceOnUse"><path
         id="path54"
         d="M 58.852,34.559 H 393.653 V 252 H 58.852 Z" /></clipPath><clipPath
       id="clipPath66"
       clipPathUnits="userSpaceOnUse"><path
         id="path64"
         d="M 0,0 H 437 V 288 H 0 Z" /></clipPath><clipPath
       id="clipPath92"
       clipPathUnits="userSpaceOnUse"><path
         id="path90"
         d="M 58.852,34.559 H 393.653 V 252 H 58.852 Z" /></clipPath><clipPath
       id="clipPath102"
       clipPathUnits="userSpaceOnUse"><path
         id="path100"
         d="M 0,0 H 437 V 288 H 0 Z" /></clipPath><clipPath
       id="clipPath128"
       clipPathUnits="userSpaceOnUse"><path
         id="path126"
         d="M 58.852,34.559 H 393.653 V 252 H 58.852 Z" /></clipPath><clipPath
       id="clipPath138"
       clipPathUnits="userSpaceOnUse"><path
         id="path136"
         d="M 0,0 H 437 V 288 H 0 Z" /></clipPath><clipPath
       id="clipPath166"
       clipPathUnits="userSpaceOnUse"><path
         id="path164"
         d="M 58.852,34.559 H 393.653 V 252 H 58.852 Z" /></clipPath><clipPath
       id="clipPath176"
       clipPathUnits="userSpaceOnUse"><path
         id="path174"
         d="M 0,0 H 437 V 288 H 0 Z" /></clipPath><clipPath
       id="clipPath204"
       clipPathUnits="userSpaceOnUse"><path
         id="path202"
         d="M 58.852,34.559 H 393.653 V 252 H 58.852 Z" /></clipPath><clipPath
       id="clipPath214"
       clipPathUnits="userSpaceOnUse"><path
         id="path212"
         d="M 0,0 H 437 V 288 H 0 Z" /></clipPath><clipPath
       id="clipPath242"
       clipPathUnits="userSpaceOnUse"><path
         id="path240"
         d="M 58.852,34.559 H 393.653 V 252 H 58.852 Z" /></clipPath><clipPath
       id="clipPath252"
       clipPathUnits="userSpaceOnUse"><path
         id="path250"
         d="M 0,0 H 437 V 288 H 0 Z" /></clipPath><clipPath
       id="clipPath288"
       clipPathUnits="userSpaceOnUse"><path
         id="path286"
         d="M 58.852,34.559 H 393.653 V 252 H 58.852 Z" /></clipPath><clipPath
       id="clipPath298"
       clipPathUnits="userSpaceOnUse"><path
         id="path296"
         d="M 0,0 H 437 V 288 H 0 Z" /></clipPath><clipPath
       id="clipPath328"
       clipPathUnits="userSpaceOnUse"><path
         id="path326"
         d="M 58.852,34.559 H 393.653 V 252 H 58.852 Z" /></clipPath><clipPath
       id="clipPath338"
       clipPathUnits="userSpaceOnUse"><path
         id="path336"
         d="M 0,0 H 437 V 288 H 0 Z" /></clipPath><clipPath
       id="clipPath368"
       clipPathUnits="userSpaceOnUse"><path
         id="path366"
         d="M 58.852,34.559 H 393.653 V 252 H 58.852 Z" /></clipPath><clipPath
       id="clipPath378"
       clipPathUnits="userSpaceOnUse"><path
         id="path376"
         d="M 0,0 H 437 V 288 H 0 Z" /></clipPath><clipPath
       id="clipPath408"
       clipPathUnits="userSpaceOnUse"><path
         id="path406"
         d="M 58.852,34.559 H 393.653 V 252 H 58.852 Z" /></clipPath><clipPath
       id="clipPath418"
       clipPathUnits="userSpaceOnUse"><path
         id="path416"
         d="M 0,0 H 437 V 288 H 0 Z" /></clipPath><clipPath
       id="clipPath448"
       clipPathUnits="userSpaceOnUse"><path
         id="path446"
         d="M 58.852,34.559 H 393.653 V 252 H 58.852 Z" /></clipPath><clipPath
       id="clipPath458"
       clipPathUnits="userSpaceOnUse"><path
         id="path456"
         d="M 0,0 H 437 V 288 H 0 Z" /></clipPath><clipPath
       id="clipPath528"
       clipPathUnits="userSpaceOnUse"><path
         id="path526"
         d="M 58.852,34.559 H 393.653 V 252 H 58.852 Z" /></clipPath><clipPath
       id="clipPath538"
       clipPathUnits="userSpaceOnUse"><path
         id="path536"
         d="M 0,0 H 437 V 288 H 0 Z" /></clipPath></defs><g
     transform="matrix(1.3333333,0,0,1.3333333,0,9.6e-6)"
     id="g10"><g
       id="g12"><path
         id="path14"
         style="fill:#ffffff;fill-opacity:1;fill-rule:nonzero;stroke:none"
         d="m 4.852,0 h 432 v 288 h -432 z" /><path
         id="path16"
         style="fill:#ffffff;fill-opacity:1;fill-rule:nonzero;stroke:none"
         d="M 58.852,34.559 H 393.653 V 252 H 58.852 Z" /></g><g
       id="g18"><g
         clip-path="url(#clipPath24)"
         id="g20"><g
           id="g26"><g
             id="g28"><g
               clip-path="url(#clipPath34)"
               id="g30"><g
                 id="g36"><g
                   id="g38"><path
                     id="path40"
                     style="fill:none;stroke:#b0b0b0;stroke-width:0.80000001;stroke-linecap:square;stroke-linejoin:round;stroke-miterlimit:4;stroke-dasharray:none;stroke-opacity:1"
                     d="M 74.07,252 V 34.559" /></g></g></g></g></g></g></g><g
       id="g42"><g
         id="g44"><path
           id="path46"
           style="fill:none;stroke:#000000;stroke-width:0.80000001;stroke-linecap:butt;stroke-linejoin:round;stroke-miterlimit:4;stroke-dasharray:none;stroke-opacity:1"
           d="m 74.07,252 v 3.5" /></g><path
         id="path48"
         style="fill:#000000;fill-opacity:1;fill-rule:nonzero;stroke:none"
         d="m 74.066,259.957 c -0.503,0 -0.886,0.25 -1.144,0.75 -0.254,0.5 -0.383,1.25 -0.383,2.254 0,1 0.129,1.75 0.383,2.25 0.258,0.5 0.641,0.75 1.144,0.75 0.512,0 0.899,-0.25 1.153,-0.75 0.254,-0.5 0.383,-1.25 0.383,-2.25 0,-1.004 -0.129,-1.754 -0.383,-2.254 -0.254,-0.5 -0.641,-0.75 -1.153,-0.75 z m 0,-0.781 c 0.821,0 1.446,0.324 1.875,0.972 0.43,0.645 0.649,1.582 0.649,2.813 0,1.227 -0.219,2.164 -0.649,2.812 -0.429,0.645 -1.054,0.969 -1.875,0.969 -0.816,0 -1.437,-0.324 -1.871,-0.969 -0.429,-0.648 -0.644,-1.585 -0.644,-2.812 0,-1.231 0.215,-2.168 0.644,-2.813 0.434,-0.648 1.055,-0.972 1.871,-0.972 z" /></g><g
       id="g50"><g
         clip-path="url(#clipPath56)"
         id="g52"><g
           id="g58"><g
             id="g60"><g
               clip-path="url(#clipPath66)"
               id="g62"><g
                 id="g68"><g
                   id="g70"><path
                     id="path72"
                     style="fill:none;stroke:#b0b0b0;stroke-width:0.80000001;stroke-linecap:square;stroke-linejoin:round;stroke-miterlimit:4;stroke-dasharray:none;stroke-opacity:1"
                     d="M 117.934,252 V 34.559" /></g></g></g></g></g></g></g><g
       id="g74"><g
         id="g76"><path
           id="path78"
           style="fill:none;stroke:#000000;stroke-width:0.80000001;stroke-linecap:butt;stroke-linejoin:round;stroke-miterlimit:4;stroke-dasharray:none;stroke-opacity:1"
           d="m 117.934,252 v 3.5" /></g><path
         id="path80"
         style="fill:#000000;fill-opacity:1;fill-rule:nonzero;stroke:none"
         d="m 112.168,260.168 -2.488,3.891 h 2.488 z m -0.258,-0.859 h 1.242 v 4.75 h 1.039 v 0.82 h -1.039 v 1.719 h -0.984 v -1.719 h -3.289 v -0.949 z" /><path
         id="path82"
         style="fill:#000000;fill-opacity:1;fill-rule:nonzero;stroke:none"
         d="m 115.992,265.77 h 1.613 v -5.563 l -1.753,0.352 v -0.899 l 1.742,-0.351 h 0.988 v 6.461 h 1.609 v 0.828 h -4.199 z" /><path
         id="path84"
         style="fill:#000000;fill-opacity:1;fill-rule:nonzero;stroke:none"
         d="m 124.293,259.957 c -0.508,0 -0.891,0.25 -1.145,0.75 -0.257,0.5 -0.382,1.25 -0.382,2.254 0,1 0.125,1.75 0.382,2.25 0.254,0.5 0.637,0.75 1.145,0.75 0.512,0 0.895,-0.25 1.148,-0.75 0.258,-0.5 0.387,-1.25 0.387,-2.25 0,-1.004 -0.129,-1.754 -0.387,-2.254 -0.253,-0.5 -0.636,-0.75 -1.148,-0.75 z m 0,-0.781 c 0.816,0 1.441,0.324 1.875,0.972 0.43,0.645 0.645,1.582 0.645,2.813 0,1.227 -0.215,2.164 -0.645,2.812 -0.434,0.645 -1.059,0.969 -1.875,0.969 -0.816,0 -1.441,-0.324 -1.871,-0.969 -0.434,-0.648 -0.649,-1.585 -0.649,-2.812 0,-1.231 0.215,-2.168 0.649,-2.813 0.43,-0.648 1.055,-0.972 1.871,-0.972 z" /></g><g
       id="g86"><g
         clip-path="url(#clipPath92)"
         id="g88"><g
           id="g94"><g
             id="g96"><g
               clip-path="url(#clipPath102)"
               id="g98"><g
                 id="g104"><g
                   id="g106"><path
                     id="path108"
                     style="fill:none;stroke:#b0b0b0;stroke-width:0.80000001;stroke-linecap:square;stroke-linejoin:round;stroke-miterlimit:4;stroke-dasharray:none;stroke-opacity:1"
                     d="M 161.797,252 V 34.559" /></g></g></g></g></g></g></g><g
       id="g110"><g
         id="g112"><path
           id="path114"
           style="fill:none;stroke:#000000;stroke-width:0.80000001;stroke-linecap:butt;stroke-linejoin:round;stroke-miterlimit:4;stroke-dasharray:none;stroke-opacity:1"
           d="m 161.797,252 v 3.5" /></g><path
         id="path116"
         style="fill:#000000;fill-opacity:1;fill-rule:nonzero;stroke:none"
         d="m 155.43,263.137 c -0.469,0 -0.836,0.125 -1.106,0.375 -0.265,0.25 -0.402,0.597 -0.402,1.035 0,0.441 0.137,0.785 0.402,1.035 0.27,0.25 0.637,0.379 1.106,0.379 0.468,0 0.84,-0.129 1.109,-0.379 0.27,-0.254 0.406,-0.598 0.406,-1.035 0,-0.438 -0.132,-0.785 -0.402,-1.035 -0.27,-0.25 -0.641,-0.375 -1.113,-0.375 z m -0.985,-0.418 c -0.422,-0.106 -0.754,-0.301 -0.988,-0.594 -0.238,-0.289 -0.355,-0.645 -0.355,-1.059 0,-0.582 0.207,-1.043 0.625,-1.382 0.414,-0.336 0.984,-0.508 1.703,-0.508 0.726,0 1.297,0.172 1.711,0.508 0.414,0.339 0.621,0.8 0.621,1.382 0,0.414 -0.121,0.77 -0.356,1.059 -0.234,0.293 -0.562,0.488 -0.984,0.594 0.476,0.109 0.848,0.324 1.109,0.648 0.266,0.321 0.399,0.715 0.399,1.18 0,0.707 -0.215,1.25 -0.645,1.629 -0.433,0.375 -1.051,0.566 -1.855,0.566 -0.801,0 -1.418,-0.191 -1.852,-0.566 -0.43,-0.379 -0.648,-0.922 -0.648,-1.629 0,-0.465 0.133,-0.859 0.402,-1.18 0.266,-0.324 0.637,-0.539 1.113,-0.648 z m -0.359,-1.559 c 0,0.375 0.117,0.672 0.352,0.883 0.234,0.211 0.566,0.316 0.992,0.316 0.425,0 0.758,-0.105 0.996,-0.316 0.238,-0.211 0.359,-0.508 0.359,-0.883 0,-0.379 -0.121,-0.672 -0.359,-0.887 -0.238,-0.21 -0.571,-0.316 -0.996,-0.316 -0.426,0 -0.758,0.106 -0.992,0.316 -0.235,0.215 -0.352,0.508 -0.352,0.887 z" /><path
         id="path118"
         style="fill:#000000;fill-opacity:1;fill-rule:nonzero;stroke:none"
         d="m 160.535,265.77 h 3.442 v 0.828 h -4.629 v -0.828 c 0.375,-0.387 0.882,-0.907 1.531,-1.559 0.644,-0.656 1.051,-1.074 1.219,-1.266 0.312,-0.355 0.535,-0.652 0.66,-0.898 0.125,-0.246 0.187,-0.488 0.187,-0.727 0,-0.386 -0.136,-0.703 -0.406,-0.945 -0.273,-0.246 -0.625,-0.367 -1.062,-0.367 -0.309,0 -0.637,0.051 -0.981,0.16 -0.344,0.105 -0.711,0.27 -1.101,0.488 v -0.996 c 0.398,-0.16 0.769,-0.281 1.113,-0.363 0.347,-0.078 0.664,-0.121 0.949,-0.121 0.754,0 1.359,0.191 1.805,0.566 0.449,0.379 0.676,0.883 0.676,1.516 0,0.297 -0.059,0.582 -0.168,0.851 -0.114,0.27 -0.317,0.582 -0.614,0.95 -0.082,0.093 -0.34,0.367 -0.777,0.816 -0.434,0.453 -1.051,1.082 -1.844,1.895 z" /><path
         id="path120"
         style="fill:#000000;fill-opacity:1;fill-rule:nonzero;stroke:none"
         d="m 168.156,259.957 c -0.508,0 -0.89,0.25 -1.144,0.75 -0.258,0.5 -0.383,1.25 -0.383,2.254 0,1 0.125,1.75 0.383,2.25 0.254,0.5 0.636,0.75 1.144,0.75 0.512,0 0.895,-0.25 1.149,-0.75 0.258,-0.5 0.386,-1.25 0.386,-2.25 0,-1.004 -0.128,-1.754 -0.386,-2.254 -0.254,-0.5 -0.637,-0.75 -1.149,-0.75 z m 0,-0.781 c 0.817,0 1.442,0.324 1.871,0.972 0.434,0.645 0.649,1.582 0.649,2.813 0,1.227 -0.215,2.164 -0.649,2.812 -0.429,0.645 -1.054,0.969 -1.871,0.969 -0.816,0 -1.441,-0.324 -1.871,-0.969 -0.433,-0.648 -0.648,-1.585 -0.648,-2.812 0,-1.231 0.215,-2.168 0.648,-2.813 0.43,-0.648 1.055,-0.972 1.871,-0.972 z" /></g><g
       id="g122"><g
         clip-path="url(#clipPath128)"
         id="g124"><g
           id="g130"><g
             id="g132"><g
               clip-path="url(#clipPath138)"
               id="g134"><g
                 id="g140"><g
                   id="g142"><path
                     id="path144"
                     style="fill:none;stroke:#b0b0b0;stroke-width:0.80000001;stroke-linecap:square;stroke-linejoin:round;stroke-miterlimit:4;stroke-dasharray:none;stroke-opacity:1"
                     d="M 205.66,252 V 34.559" /></g></g></g></g></g></g></g><g
       id="g146"><g
         id="g148"><path
           id="path150"
           style="fill:none;stroke:#000000;stroke-width:0.80000001;stroke-linecap:butt;stroke-linejoin:round;stroke-miterlimit:4;stroke-dasharray:none;stroke-opacity:1"
           d="m 205.66,252 v 3.5" /></g><path
         id="path152"
         style="fill:#000000;fill-opacity:1;fill-rule:nonzero;stroke:none"
         d="m 194.176,265.77 h 1.609 v -5.563 l -1.754,0.352 v -0.899 l 1.746,-0.351 h 0.985 v 6.461 h 1.613 v 0.828 h -4.199 z" /><path
         id="path154"
         style="fill:#000000;fill-opacity:1;fill-rule:nonzero;stroke:none"
         d="m 201.215,265.77 h 3.441 v 0.828 h -4.629 v -0.828 c 0.375,-0.387 0.887,-0.907 1.532,-1.559 0.648,-0.656 1.054,-1.074 1.218,-1.266 0.317,-0.355 0.536,-0.652 0.661,-0.898 0.128,-0.246 0.191,-0.488 0.191,-0.727 0,-0.386 -0.137,-0.703 -0.41,-0.945 -0.27,-0.246 -0.625,-0.367 -1.063,-0.367 -0.308,0 -0.636,0.051 -0.98,0.16 -0.34,0.105 -0.707,0.27 -1.098,0.488 v -0.996 c 0.395,-0.16 0.766,-0.281 1.113,-0.363 0.344,-0.078 0.661,-0.121 0.946,-0.121 0.758,0 1.359,0.191 1.808,0.566 0.45,0.379 0.672,0.883 0.672,1.516 0,0.297 -0.054,0.582 -0.168,0.851 -0.109,0.27 -0.316,0.582 -0.613,0.95 -0.082,0.093 -0.34,0.367 -0.777,0.816 -0.434,0.453 -1.047,1.082 -1.844,1.895 z" /><path
         id="path156"
         style="fill:#000000;fill-opacity:1;fill-rule:nonzero;stroke:none"
         d="m 209.715,262.668 c 0.473,0.102 0.84,0.312 1.105,0.629 0.266,0.32 0.399,0.715 0.399,1.183 0,0.719 -0.246,1.274 -0.742,1.668 -0.493,0.395 -1.196,0.594 -2.11,0.594 -0.304,0 -0.617,-0.031 -0.941,-0.094 -0.324,-0.058 -0.66,-0.148 -1.004,-0.269 v -0.953 c 0.273,0.16 0.57,0.281 0.894,0.363 0.329,0.078 0.668,0.121 1.024,0.121 0.617,0 1.09,-0.121 1.414,-0.367 0.324,-0.242 0.484,-0.598 0.484,-1.063 0,-0.429 -0.152,-0.765 -0.453,-1.007 -0.301,-0.243 -0.719,-0.364 -1.254,-0.364 h -0.851 v -0.812 h 0.89 c 0.485,0 0.856,-0.098 1.114,-0.289 0.254,-0.195 0.382,-0.473 0.382,-0.84 0,-0.375 -0.132,-0.66 -0.398,-0.859 -0.262,-0.204 -0.645,-0.301 -1.137,-0.301 -0.273,0 -0.562,0.027 -0.871,0.086 -0.308,0.058 -0.648,0.152 -1.019,0.273 v -0.879 c 0.375,-0.101 0.726,-0.179 1.05,-0.234 0.329,-0.051 0.637,-0.078 0.926,-0.078 0.75,0 1.344,0.172 1.778,0.512 0.437,0.339 0.656,0.8 0.656,1.378 0,0.403 -0.117,0.747 -0.348,1.024 -0.23,0.277 -0.562,0.469 -0.988,0.578 z" /><path
         id="path158"
         style="fill:#000000;fill-opacity:1;fill-rule:nonzero;stroke:none"
         d="m 215.199,259.957 c -0.508,0 -0.89,0.25 -1.144,0.75 -0.258,0.5 -0.383,1.25 -0.383,2.254 0,1 0.125,1.75 0.383,2.25 0.254,0.5 0.636,0.75 1.144,0.75 0.512,0 0.895,-0.25 1.149,-0.75 0.257,-0.5 0.386,-1.25 0.386,-2.25 0,-1.004 -0.129,-1.754 -0.386,-2.254 -0.254,-0.5 -0.637,-0.75 -1.149,-0.75 z m 0,-0.781 c 0.817,0 1.442,0.324 1.875,0.972 0.43,0.645 0.645,1.582 0.645,2.813 0,1.227 -0.215,2.164 -0.645,2.812 -0.433,0.645 -1.058,0.969 -1.875,0.969 -0.816,0 -1.441,-0.324 -1.871,-0.969 -0.433,-0.648 -0.648,-1.585 -0.648,-2.812 0,-1.231 0.215,-2.168 0.648,-2.813 0.43,-0.648 1.055,-0.972 1.871,-0.972 z" /></g><g
       id="g160"><g
         clip-path="url(#clipPath166)"
         id="g162"><g
           id="g168"><g
             id="g170"><g
               clip-path="url(#clipPath176)"
               id="g172"><g
                 id="g178"><g
                   id="g180"><path
                     id="path182"
                     style="fill:none;stroke:#b0b0b0;stroke-width:0.80000001;stroke-linecap:square;stroke-linejoin:round;stroke-miterlimit:4;stroke-dasharray:none;stroke-opacity:1"
                     d="M 249.523,252 V 34.559" /></g></g></g></g></g></g></g><g
       id="g184"><g
         id="g186"><path
           id="path188"
           style="fill:none;stroke:#000000;stroke-width:0.80000001;stroke-linecap:butt;stroke-linejoin:round;stroke-miterlimit:4;stroke-dasharray:none;stroke-opacity:1"
           d="m 249.523,252 v 3.5" /></g><path
         id="path190"
         style="fill:#000000;fill-opacity:1;fill-rule:nonzero;stroke:none"
         d="m 238.039,265.77 h 1.609 v -5.563 l -1.753,0.352 v -0.899 l 1.746,-0.351 h 0.984 v 6.461 h 1.609 v 0.828 h -4.195 z" /><path
         id="path192"
         style="fill:#000000;fill-opacity:1;fill-rule:nonzero;stroke:none"
         d="m 246.461,262.563 c -0.441,0 -0.793,0.148 -1.055,0.453 -0.258,0.3 -0.386,0.714 -0.386,1.242 0,0.527 0.128,0.941 0.386,1.246 0.262,0.305 0.614,0.457 1.055,0.457 0.441,0 0.793,-0.152 1.051,-0.457 0.258,-0.305 0.386,-0.719 0.386,-1.246 0,-0.528 -0.128,-0.942 -0.386,-1.242 -0.258,-0.305 -0.61,-0.453 -1.051,-0.453 z m 1.957,-3.094 v 0.898 c -0.246,-0.117 -0.496,-0.207 -0.75,-0.265 -0.25,-0.063 -0.5,-0.094 -0.75,-0.094 -0.652,0 -1.148,0.219 -1.492,0.656 -0.344,0.441 -0.539,1.106 -0.586,1.992 0.191,-0.281 0.43,-0.5 0.723,-0.648 0.289,-0.153 0.609,-0.227 0.957,-0.227 0.73,0 1.308,0.223 1.734,0.664 0.426,0.446 0.637,1.051 0.637,1.813 0,0.75 -0.219,1.351 -0.664,1.805 -0.442,0.453 -1.032,0.679 -1.766,0.679 -0.844,0 -1.488,-0.324 -1.934,-0.969 -0.445,-0.648 -0.668,-1.585 -0.668,-2.812 0,-1.152 0.274,-2.07 0.821,-2.758 0.547,-0.683 1.277,-1.027 2.199,-1.027 0.25,0 0.5,0.023 0.75,0.074 0.254,0.051 0.516,0.121 0.789,0.219 z" /><path
         id="path194"
         style="fill:#000000;fill-opacity:1;fill-rule:nonzero;stroke:none"
         d="m 253.301,260.168 -2.492,3.891 h 2.492 z m -0.258,-0.859 h 1.238 v 4.75 h 1.043 v 0.82 h -1.043 v 1.719 h -0.98 v -1.719 h -3.289 v -0.949 z" /><path
         id="path196"
         style="fill:#000000;fill-opacity:1;fill-rule:nonzero;stroke:none"
         d="m 259.063,259.957 c -0.508,0 -0.891,0.25 -1.145,0.75 -0.258,0.5 -0.383,1.25 -0.383,2.254 0,1 0.125,1.75 0.383,2.25 0.254,0.5 0.637,0.75 1.145,0.75 0.511,0 0.894,-0.25 1.148,-0.75 0.258,-0.5 0.387,-1.25 0.387,-2.25 0,-1.004 -0.129,-1.754 -0.387,-2.254 -0.254,-0.5 -0.637,-0.75 -1.148,-0.75 z m 0,-0.781 c 0.816,0 1.441,0.324 1.871,0.972 0.433,0.645 0.648,1.582 0.648,2.813 0,1.227 -0.215,2.164 -0.648,2.812 -0.43,0.645 -1.055,0.969 -1.871,0.969 -0.817,0 -1.442,-0.324 -1.872,-0.969 -0.433,-0.648 -0.648,-1.585 -0.648,-2.812 0,-1.231 0.215,-2.168 0.648,-2.813 0.43,-0.648 1.055,-0.972 1.872,-0.972 z" /></g><g
       id="g198"><g
         clip-path="url(#clipPath204)"
         id="g200"><g
           id="g206"><g
             id="g208"><g
               clip-path="url(#clipPath214)"
               id="g210"><g
                 id="g216"><g
                   id="g218"><path
                     id="path220"
                     style="fill:none;stroke:#b0b0b0;stroke-width:0.80000001;stroke-linecap:square;stroke-linejoin:round;stroke-miterlimit:4;stroke-dasharray:none;stroke-opacity:1"
                     d="M 293.383,252 V 34.559" /></g></g></g></g></g></g></g><g
       id="g222"><g
         id="g224"><path
           id="path226"
           style="fill:none;stroke:#000000;stroke-width:0.80000001;stroke-linecap:butt;stroke-linejoin:round;stroke-miterlimit:4;stroke-dasharray:none;stroke-opacity:1"
           d="m 293.383,252 v 3.5" /></g><path
         id="path228"
         style="fill:#000000;fill-opacity:1;fill-rule:nonzero;stroke:none"
         d="m 282.578,265.77 h 3.442 v 0.828 h -4.629 v -0.828 c 0.375,-0.387 0.886,-0.907 1.531,-1.559 0.648,-0.656 1.055,-1.074 1.219,-1.266 0.316,-0.355 0.535,-0.652 0.66,-0.898 0.125,-0.246 0.191,-0.488 0.191,-0.727 0,-0.386 -0.137,-0.703 -0.41,-0.945 -0.269,-0.246 -0.625,-0.367 -1.062,-0.367 -0.309,0 -0.637,0.051 -0.981,0.16 -0.34,0.105 -0.707,0.27 -1.098,0.488 v -0.996 c 0.395,-0.16 0.766,-0.281 1.114,-0.363 0.343,-0.078 0.66,-0.121 0.945,-0.121 0.758,0 1.359,0.191 1.809,0.566 0.449,0.379 0.671,0.883 0.671,1.516 0,0.297 -0.054,0.582 -0.167,0.851 -0.114,0.27 -0.317,0.582 -0.614,0.95 -0.082,0.093 -0.34,0.367 -0.777,0.816 -0.434,0.453 -1.051,1.082 -1.844,1.895 z" /><path
         id="path230"
         style="fill:#000000;fill-opacity:1;fill-rule:nonzero;stroke:none"
         d="m 290.199,259.957 c -0.508,0 -0.886,0.25 -1.144,0.75 -0.254,0.5 -0.383,1.25 -0.383,2.254 0,1 0.129,1.75 0.383,2.25 0.258,0.5 0.636,0.75 1.144,0.75 0.512,0 0.895,-0.25 1.153,-0.75 0.253,-0.5 0.382,-1.25 0.382,-2.25 0,-1.004 -0.129,-1.754 -0.382,-2.254 -0.258,-0.5 -0.641,-0.75 -1.153,-0.75 z m 0,-0.781 c 0.817,0 1.442,0.324 1.875,0.972 0.43,0.645 0.645,1.582 0.645,2.813 0,1.227 -0.215,2.164 -0.645,2.812 -0.433,0.645 -1.058,0.969 -1.875,0.969 -0.816,0 -1.441,-0.324 -1.871,-0.969 -0.43,-0.648 -0.648,-1.585 -0.648,-2.812 0,-1.231 0.218,-2.168 0.648,-2.813 0.43,-0.648 1.055,-0.972 1.871,-0.972 z" /><path
         id="path232"
         style="fill:#000000;fill-opacity:1;fill-rule:nonzero;stroke:none"
         d="m 294.465,259.309 h 3.871 v 0.832 h -2.969 v 1.785 c 0.141,-0.051 0.285,-0.086 0.426,-0.11 0.145,-0.023 0.289,-0.035 0.434,-0.035 0.812,0 1.457,0.223 1.933,0.668 0.477,0.446 0.711,1.047 0.711,1.809 0,0.785 -0.242,1.394 -0.73,1.832 -0.489,0.433 -1.176,0.652 -2.067,0.652 -0.304,0 -0.617,-0.027 -0.937,-0.078 -0.317,-0.055 -0.641,-0.133 -0.981,-0.234 v -0.992 c 0.293,0.156 0.594,0.277 0.907,0.355 0.312,0.078 0.644,0.117 0.992,0.117 0.562,0 1.008,-0.148 1.336,-0.445 0.332,-0.297 0.496,-0.695 0.496,-1.207 0,-0.504 -0.164,-0.906 -0.496,-1.203 -0.328,-0.297 -0.774,-0.446 -1.336,-0.446 -0.266,0 -0.528,0.028 -0.789,0.086 -0.262,0.059 -0.528,0.153 -0.801,0.274 z" /><path
         id="path234"
         style="fill:#000000;fill-opacity:1;fill-rule:nonzero;stroke:none"
         d="m 302.926,259.957 c -0.508,0 -0.891,0.25 -1.149,0.75 -0.254,0.5 -0.382,1.25 -0.382,2.254 0,1 0.128,1.75 0.382,2.25 0.258,0.5 0.641,0.75 1.149,0.75 0.512,0 0.894,-0.25 1.148,-0.75 0.258,-0.5 0.383,-1.25 0.383,-2.25 0,-1.004 -0.125,-1.754 -0.383,-2.254 -0.254,-0.5 -0.636,-0.75 -1.148,-0.75 z m 0,-0.781 c 0.816,0 1.441,0.324 1.871,0.972 0.433,0.645 0.648,1.582 0.648,2.813 0,1.227 -0.215,2.164 -0.648,2.812 -0.43,0.645 -1.055,0.969 -1.871,0.969 -0.817,0 -1.442,-0.324 -1.875,-0.969 -0.43,-0.648 -0.645,-1.585 -0.645,-2.812 0,-1.231 0.215,-2.168 0.645,-2.813 0.433,-0.648 1.058,-0.972 1.875,-0.972 z" /></g><g
       id="g236"><g
         clip-path="url(#clipPath242)"
         id="g238"><g
           id="g244"><g
             id="g246"><g
               clip-path="url(#clipPath252)"
               id="g248"><g
                 id="g254"><g
                   id="g256"><path
                     id="path258"
                     style="fill:none;stroke:#b0b0b0;stroke-width:0.80000001;stroke-linecap:square;stroke-linejoin:round;stroke-miterlimit:4;stroke-dasharray:none;stroke-opacity:1"
                     d="M 337.246,252 V 34.559" /></g></g></g></g></g></g></g><g
       id="g260"><g
         id="g262"><path
           id="path264"
           style="fill:none;stroke:#000000;stroke-width:0.80000001;stroke-linecap:butt;stroke-linejoin:round;stroke-miterlimit:4;stroke-dasharray:none;stroke-opacity:1"
           d="m 337.246,252 v 3.5" /></g><path
         id="path266"
         style="fill:#000000;fill-opacity:1;fill-rule:nonzero;stroke:none"
         d="m 326.441,265.77 h 3.442 v 0.828 h -4.629 v -0.828 c 0.375,-0.387 0.883,-0.907 1.531,-1.559 0.645,-0.656 1.051,-1.074 1.219,-1.266 0.316,-0.355 0.535,-0.652 0.66,-0.898 0.125,-0.246 0.188,-0.488 0.188,-0.727 0,-0.386 -0.133,-0.703 -0.407,-0.945 -0.273,-0.246 -0.625,-0.367 -1.062,-0.367 -0.309,0 -0.637,0.051 -0.981,0.16 -0.343,0.105 -0.707,0.27 -1.097,0.488 v -0.996 c 0.394,-0.16 0.765,-0.281 1.109,-0.363 0.348,-0.078 0.664,-0.121 0.949,-0.121 0.758,0 1.36,0.191 1.809,0.566 0.449,0.379 0.672,0.883 0.672,1.516 0,0.297 -0.055,0.582 -0.168,0.851 -0.113,0.27 -0.317,0.582 -0.613,0.95 -0.083,0.093 -0.34,0.367 -0.778,0.816 -0.433,0.453 -1.051,1.082 -1.844,1.895 z" /><path
         id="path268"
         style="fill:#000000;fill-opacity:1;fill-rule:nonzero;stroke:none"
         d="m 334.664,260.168 -2.492,3.891 h 2.492 z m -0.258,-0.859 h 1.239 v 4.75 h 1.043 v 0.82 h -1.043 v 1.719 h -0.981 v -1.719 h -3.289 v -0.949 z" /><path
         id="path270"
         style="fill:#000000;fill-opacity:1;fill-rule:nonzero;stroke:none"
         d="m 340.547,262.563 c -0.442,0 -0.793,0.148 -1.051,0.453 -0.258,0.3 -0.387,0.714 -0.387,1.242 0,0.527 0.129,0.941 0.387,1.246 0.258,0.305 0.609,0.457 1.051,0.457 0.445,0 0.793,-0.152 1.055,-0.457 0.257,-0.305 0.386,-0.719 0.386,-1.246 0,-0.528 -0.129,-0.942 -0.386,-1.242 -0.262,-0.305 -0.61,-0.453 -1.055,-0.453 z m 1.961,-3.094 v 0.898 c -0.25,-0.117 -0.5,-0.207 -0.75,-0.265 -0.254,-0.063 -0.504,-0.094 -0.75,-0.094 -0.653,0 -1.149,0.219 -1.492,0.656 -0.344,0.441 -0.539,1.106 -0.59,1.992 0.191,-0.281 0.433,-0.5 0.722,-0.648 0.29,-0.153 0.61,-0.227 0.957,-0.227 0.735,0 1.313,0.223 1.739,0.664 0.422,0.446 0.636,1.051 0.636,1.813 0,0.75 -0.222,1.351 -0.664,1.805 -0.445,0.453 -1.031,0.679 -1.769,0.679 -0.844,0 -1.488,-0.324 -1.934,-0.969 -0.445,-0.648 -0.668,-1.585 -0.668,-2.812 0,-1.152 0.274,-2.07 0.821,-2.758 0.547,-0.683 1.281,-1.027 2.203,-1.027 0.246,0 0.496,0.023 0.75,0.074 0.25,0.051 0.511,0.121 0.789,0.219 z" /><path
         id="path272"
         style="fill:#000000;fill-opacity:1;fill-rule:nonzero;stroke:none"
         d="m 346.785,259.957 c -0.504,0 -0.887,0.25 -1.144,0.75 -0.254,0.5 -0.383,1.25 -0.383,2.254 0,1 0.129,1.75 0.383,2.25 0.257,0.5 0.64,0.75 1.144,0.75 0.512,0 0.899,-0.25 1.153,-0.75 0.253,-0.5 0.382,-1.25 0.382,-2.25 0,-1.004 -0.129,-1.754 -0.382,-2.254 -0.254,-0.5 -0.641,-0.75 -1.153,-0.75 z m 0,-0.781 c 0.82,0 1.445,0.324 1.875,0.972 0.43,0.645 0.649,1.582 0.649,2.813 0,1.227 -0.219,2.164 -0.649,2.812 -0.43,0.645 -1.055,0.969 -1.875,0.969 -0.816,0 -1.437,-0.324 -1.871,-0.969 -0.43,-0.648 -0.644,-1.585 -0.644,-2.812 0,-1.231 0.214,-2.168 0.644,-2.813 0.434,-0.648 1.055,-0.972 1.871,-0.972 z" /><path
         id="path274"
         style="fill:#000000;fill-opacity:1;fill-rule:nonzero;stroke:none"
         d="m 218.992,275.637 v -2.957 h 0.899 v 7.597 h -0.899 v -0.82 c -0.187,0.324 -0.429,0.566 -0.715,0.723 -0.289,0.16 -0.636,0.238 -1.039,0.238 -0.66,0 -1.199,-0.262 -1.613,-0.789 -0.414,-0.527 -0.621,-1.223 -0.621,-2.082 0,-0.859 0.207,-1.551 0.621,-2.078 0.414,-0.528 0.953,-0.793 1.613,-0.793 0.403,0 0.75,0.078 1.039,0.238 0.286,0.156 0.528,0.399 0.715,0.723 z m -3.062,1.91 c 0,0.66 0.136,1.18 0.41,1.555 0.269,0.375 0.644,0.562 1.117,0.562 0.477,0 0.852,-0.187 1.125,-0.562 0.273,-0.375 0.41,-0.895 0.41,-1.555 0,-0.66 -0.137,-1.18 -0.41,-1.555 -0.273,-0.375 -0.648,-0.562 -1.125,-0.562 -0.473,0 -0.848,0.187 -1.117,0.562 -0.274,0.375 -0.41,0.895 -0.41,1.555 z" /><path
         id="path276"
         style="fill:#000000;fill-opacity:1;fill-rule:nonzero;stroke:none"
         d="m 224.227,277.527 c -0.727,0 -1.231,0.082 -1.508,0.25 -0.281,0.164 -0.422,0.45 -0.422,0.848 0,0.32 0.105,0.574 0.316,0.762 0.211,0.187 0.496,0.277 0.856,0.277 0.5,0 0.898,-0.176 1.199,-0.527 0.301,-0.356 0.453,-0.824 0.453,-1.41 v -0.2 z m 1.793,-0.371 v 3.121 h -0.899 v -0.832 c -0.207,0.332 -0.461,0.578 -0.769,0.735 -0.305,0.16 -0.68,0.238 -1.122,0.238 -0.558,0 -1.003,-0.156 -1.335,-0.473 -0.332,-0.312 -0.497,-0.734 -0.497,-1.261 0,-0.614 0.207,-1.079 0.618,-1.391 0.414,-0.313 1.027,-0.469 1.843,-0.469 h 1.262 v -0.09 c 0,-0.41 -0.137,-0.73 -0.41,-0.957 -0.27,-0.226 -0.652,-0.339 -1.145,-0.339 -0.312,0 -0.617,0.039 -0.914,0.113 -0.297,0.074 -0.578,0.187 -0.851,0.336 v -0.832 c 0.328,-0.125 0.644,-0.219 0.957,-0.282 0.308,-0.066 0.609,-0.097 0.902,-0.097 0.789,0 1.383,0.207 1.774,0.617 0.39,0.41 0.586,1.031 0.586,1.863 z" /><path
         id="path278"
         style="fill:#000000;fill-opacity:1;fill-rule:nonzero;stroke:none"
         d="m 230.145,280.785 c -0.254,0.649 -0.5,1.074 -0.743,1.274 -0.242,0.199 -0.562,0.296 -0.964,0.296 h -0.719 v -0.75 h 0.527 c 0.246,0 0.438,-0.058 0.574,-0.175 0.137,-0.117 0.289,-0.395 0.453,-0.832 l 0.165,-0.41 -2.211,-5.379 h 0.949 l 1.711,4.277 1.707,-4.277 h 0.953 z" /><path
         id="path280"
         style="fill:#000000;fill-opacity:1;fill-rule:nonzero;stroke:none"
         d="m 237.273,274.969 v 0.851 c -0.253,-0.132 -0.519,-0.23 -0.793,-0.293 -0.273,-0.066 -0.554,-0.097 -0.847,-0.097 -0.445,0 -0.781,0.066 -1.004,0.203 -0.223,0.137 -0.336,0.34 -0.336,0.617 0,0.207 0.082,0.371 0.242,0.488 0.156,0.121 0.477,0.235 0.961,0.34 l 0.309,0.07 c 0.636,0.137 1.09,0.329 1.359,0.579 0.27,0.246 0.402,0.593 0.402,1.039 0,0.511 -0.203,0.914 -0.601,1.211 -0.402,0.293 -0.957,0.441 -1.66,0.441 -0.293,0 -0.598,-0.027 -0.914,-0.086 -0.321,-0.055 -0.653,-0.141 -1.004,-0.254 v -0.93 c 0.332,0.172 0.66,0.301 0.98,0.391 0.324,0.082 0.641,0.125 0.957,0.125 0.426,0 0.75,-0.07 0.977,-0.215 0.226,-0.144 0.344,-0.351 0.344,-0.613 0,-0.242 -0.086,-0.43 -0.25,-0.563 -0.165,-0.128 -0.524,-0.253 -1.079,-0.375 l -0.312,-0.074 c -0.559,-0.117 -0.961,-0.297 -1.207,-0.539 -0.246,-0.242 -0.371,-0.574 -0.371,-0.996 0,-0.516 0.183,-0.914 0.547,-1.191 0.363,-0.282 0.882,-0.422 1.554,-0.422 0.328,0 0.641,0.023 0.934,0.074 0.293,0.047 0.566,0.121 0.812,0.219 z" /></g><g
       id="g282"><g
         clip-path="url(#clipPath288)"
         id="g284"><g
           id="g290"><g
             id="g292"><g
               clip-path="url(#clipPath298)"
               id="g294"><g
                 id="g300"><g
                   id="g302"><path
                     id="path304"
                     style="fill:none;stroke:#b0b0b0;stroke-width:0.80000001;stroke-linecap:square;stroke-linejoin:round;stroke-miterlimit:4;stroke-dasharray:none;stroke-opacity:1"
                     d="m 58.852,219.836 h 334.8" /></g></g></g></g></g></g></g><g
       id="g306"><g
         id="g308"><path
           id="path310"
           style="fill:none;stroke:#000000;stroke-width:0.80000001;stroke-linecap:butt;stroke-linejoin:round;stroke-miterlimit:4;stroke-dasharray:none;stroke-opacity:1"
           d="m 58.852,219.836 h -3.5" /></g><path
         id="path312"
         style="fill:#000000;fill-opacity:1;fill-rule:nonzero;stroke:none"
         d="m 21.961,222.805 h 3.441 v 0.828 h -4.629 v -0.828 c 0.375,-0.387 0.883,-0.907 1.532,-1.559 0.644,-0.652 1.05,-1.074 1.218,-1.266 0.313,-0.351 0.536,-0.652 0.661,-0.898 0.125,-0.246 0.187,-0.488 0.187,-0.727 0,-0.386 -0.137,-0.703 -0.406,-0.945 -0.274,-0.246 -0.625,-0.367 -1.063,-0.367 -0.308,0 -0.636,0.055 -0.98,0.16 -0.344,0.11 -0.711,0.27 -1.102,0.488 v -0.996 c 0.399,-0.16 0.77,-0.281 1.114,-0.359 0.347,-0.082 0.664,-0.125 0.949,-0.125 0.754,0 1.355,0.191 1.805,0.57 0.449,0.375 0.675,0.879 0.675,1.512 0,0.301 -0.058,0.582 -0.168,0.852 -0.113,0.269 -0.316,0.585 -0.613,0.949 -0.082,0.094 -0.34,0.367 -0.777,0.82 -0.434,0.449 -1.051,1.082 -1.844,1.891 z" /><path
         id="path314"
         style="fill:#000000;fill-opacity:1;fill-rule:nonzero;stroke:none"
         d="m 29.582,216.992 c -0.508,0 -0.891,0.25 -1.144,0.75 -0.258,0.5 -0.383,1.25 -0.383,2.254 0,1 0.125,1.75 0.383,2.25 0.253,0.5 0.636,0.75 1.144,0.75 0.512,0 0.895,-0.25 1.148,-0.75 0.258,-0.5 0.387,-1.25 0.387,-2.25 0,-1.004 -0.129,-1.754 -0.387,-2.254 -0.253,-0.5 -0.636,-0.75 -1.148,-0.75 z m 0,-0.781 c 0.816,0 1.441,0.324 1.871,0.973 0.434,0.644 0.649,1.582 0.649,2.812 0,1.227 -0.215,2.164 -0.649,2.813 -0.43,0.644 -1.055,0.968 -1.871,0.968 -0.816,0 -1.441,-0.324 -1.871,-0.968 -0.434,-0.649 -0.648,-1.586 -0.648,-2.813 0,-1.23 0.214,-2.168 0.648,-2.812 0.43,-0.649 1.055,-0.973 1.871,-0.973 z" /><path
         id="path316"
         style="fill:#000000;fill-opacity:1;fill-rule:nonzero;stroke:none"
         d="m 35.945,216.992 c -0.507,0 -0.89,0.25 -1.148,0.75 -0.254,0.5 -0.383,1.25 -0.383,2.254 0,1 0.129,1.75 0.383,2.25 0.258,0.5 0.641,0.75 1.148,0.75 0.508,0 0.895,-0.25 1.149,-0.75 0.258,-0.5 0.383,-1.25 0.383,-2.25 0,-1.004 -0.125,-1.754 -0.383,-2.254 -0.254,-0.5 -0.641,-0.75 -1.149,-0.75 z m 0,-0.781 c 0.817,0 1.442,0.324 1.871,0.973 0.434,0.644 0.649,1.582 0.649,2.812 0,1.227 -0.215,2.164 -0.649,2.813 -0.429,0.644 -1.054,0.968 -1.871,0.968 -0.82,0 -1.441,-0.324 -1.875,-0.968 -0.429,-0.649 -0.644,-1.586 -0.644,-2.813 0,-1.23 0.215,-2.168 0.644,-2.812 0.434,-0.649 1.055,-0.973 1.875,-0.973 z" /><path
         id="path318"
         style="fill:#000000;fill-opacity:1;fill-rule:nonzero;stroke:none"
         d="m 42.305,216.992 c -0.508,0 -0.887,0.25 -1.145,0.75 -0.254,0.5 -0.383,1.25 -0.383,2.254 0,1 0.129,1.75 0.383,2.25 0.258,0.5 0.637,0.75 1.145,0.75 0.511,0 0.894,-0.25 1.152,-0.75 0.254,-0.5 0.383,-1.25 0.383,-2.25 0,-1.004 -0.129,-1.754 -0.383,-2.254 -0.258,-0.5 -0.641,-0.75 -1.152,-0.75 z m 0,-0.781 c 0.82,0 1.441,0.324 1.875,0.973 0.429,0.644 0.644,1.582 0.644,2.812 0,1.227 -0.215,2.164 -0.644,2.813 -0.434,0.644 -1.055,0.968 -1.875,0.968 -0.817,0 -1.442,-0.324 -1.871,-0.968 -0.43,-0.649 -0.649,-1.586 -0.649,-2.813 0,-1.23 0.219,-2.168 0.649,-2.812 0.429,-0.649 1.054,-0.973 1.871,-0.973 z" /><path
         id="path320"
         style="fill:#000000;fill-opacity:1;fill-rule:nonzero;stroke:none"
         d="m 48.668,216.992 c -0.508,0 -0.891,0.25 -1.145,0.75 -0.257,0.5 -0.382,1.25 -0.382,2.254 0,1 0.125,1.75 0.382,2.25 0.254,0.5 0.637,0.75 1.145,0.75 0.512,0 0.895,-0.25 1.148,-0.75 0.258,-0.5 0.387,-1.25 0.387,-2.25 0,-1.004 -0.129,-1.754 -0.387,-2.254 -0.253,-0.5 -0.636,-0.75 -1.148,-0.75 z m 0,-0.781 c 0.816,0 1.441,0.324 1.875,0.973 0.43,0.644 0.645,1.582 0.645,2.812 0,1.227 -0.215,2.164 -0.645,2.813 -0.434,0.644 -1.059,0.968 -1.875,0.968 -0.816,0 -1.441,-0.324 -1.871,-0.968 -0.434,-0.649 -0.649,-1.586 -0.649,-2.813 0,-1.23 0.215,-2.168 0.649,-2.812 0.43,-0.649 1.055,-0.973 1.871,-0.973 z" /></g><g
       id="g322"><g
         clip-path="url(#clipPath328)"
         id="g324"><g
           id="g330"><g
             id="g332"><g
               clip-path="url(#clipPath338)"
               id="g334"><g
                 id="g340"><g
                   id="g342"><path
                     id="path344"
                     style="fill:none;stroke:#b0b0b0;stroke-width:0.80000001;stroke-linecap:square;stroke-linejoin:round;stroke-miterlimit:4;stroke-dasharray:none;stroke-opacity:1"
                     d="m 58.852,179.031 h 334.8" /></g></g></g></g></g></g></g><g
       id="g346"><g
         id="g348"><path
           id="path350"
           style="fill:none;stroke:#000000;stroke-width:0.80000001;stroke-linecap:butt;stroke-linejoin:round;stroke-miterlimit:4;stroke-dasharray:none;stroke-opacity:1"
           d="m 58.852,179.031 h -3.5" /></g><path
         id="path352"
         style="fill:#000000;fill-opacity:1;fill-rule:nonzero;stroke:none"
         d="m 23.82,176.398 -2.492,3.895 h 2.492 z m -0.257,-0.859 h 1.238 v 4.754 h 1.043 v 0.82 h -1.043 v 1.719 H 23.82 v -1.719 h -3.289 v -0.953 z" /><path
         id="path354"
         style="fill:#000000;fill-opacity:1;fill-rule:nonzero;stroke:none"
         d="m 29.582,176.191 c -0.508,0 -0.891,0.25 -1.144,0.75 -0.258,0.497 -0.383,1.25 -0.383,2.25 0,1 0.125,1.75 0.383,2.25 0.253,0.5 0.636,0.75 1.144,0.75 0.512,0 0.895,-0.25 1.148,-0.75 0.258,-0.5 0.387,-1.25 0.387,-2.25 0,-1 -0.129,-1.753 -0.387,-2.25 -0.253,-0.5 -0.636,-0.75 -1.148,-0.75 z m 0,-0.781 c 0.816,0 1.441,0.32 1.871,0.969 0.434,0.644 0.649,1.582 0.649,2.812 0,1.231 -0.215,2.164 -0.649,2.813 -0.43,0.644 -1.055,0.969 -1.871,0.969 -0.816,0 -1.441,-0.325 -1.871,-0.969 -0.434,-0.649 -0.648,-1.582 -0.648,-2.813 0,-1.23 0.214,-2.168 0.648,-2.812 0.43,-0.649 1.055,-0.969 1.871,-0.969 z" /><path
         id="path356"
         style="fill:#000000;fill-opacity:1;fill-rule:nonzero;stroke:none"
         d="m 35.945,176.191 c -0.507,0 -0.89,0.25 -1.148,0.75 -0.254,0.497 -0.383,1.25 -0.383,2.25 0,1 0.129,1.75 0.383,2.25 0.258,0.5 0.641,0.75 1.148,0.75 0.508,0 0.895,-0.25 1.149,-0.75 0.258,-0.5 0.383,-1.25 0.383,-2.25 0,-1 -0.125,-1.753 -0.383,-2.25 -0.254,-0.5 -0.641,-0.75 -1.149,-0.75 z m 0,-0.781 c 0.817,0 1.442,0.32 1.871,0.969 0.434,0.644 0.649,1.582 0.649,2.812 0,1.231 -0.215,2.164 -0.649,2.813 -0.429,0.644 -1.054,0.969 -1.871,0.969 -0.82,0 -1.441,-0.325 -1.875,-0.969 -0.429,-0.649 -0.644,-1.582 -0.644,-2.813 0,-1.23 0.215,-2.168 0.644,-2.812 0.434,-0.649 1.055,-0.969 1.875,-0.969 z" /><path
         id="path358"
         style="fill:#000000;fill-opacity:1;fill-rule:nonzero;stroke:none"
         d="m 42.305,176.191 c -0.508,0 -0.887,0.25 -1.145,0.75 -0.254,0.497 -0.383,1.25 -0.383,2.25 0,1 0.129,1.75 0.383,2.25 0.258,0.5 0.637,0.75 1.145,0.75 0.511,0 0.894,-0.25 1.152,-0.75 0.254,-0.5 0.383,-1.25 0.383,-2.25 0,-1 -0.129,-1.753 -0.383,-2.25 -0.258,-0.5 -0.641,-0.75 -1.152,-0.75 z m 0,-0.781 c 0.82,0 1.441,0.32 1.875,0.969 0.429,0.644 0.644,1.582 0.644,2.812 0,1.231 -0.215,2.164 -0.644,2.813 -0.434,0.644 -1.055,0.969 -1.875,0.969 -0.817,0 -1.442,-0.325 -1.871,-0.969 -0.43,-0.649 -0.649,-1.582 -0.649,-2.813 0,-1.23 0.219,-2.168 0.649,-2.812 0.429,-0.649 1.054,-0.969 1.871,-0.969 z" /><path
         id="path360"
         style="fill:#000000;fill-opacity:1;fill-rule:nonzero;stroke:none"
         d="m 48.668,176.191 c -0.508,0 -0.891,0.25 -1.145,0.75 -0.257,0.497 -0.382,1.25 -0.382,2.25 0,1 0.125,1.75 0.382,2.25 0.254,0.5 0.637,0.75 1.145,0.75 0.512,0 0.895,-0.25 1.148,-0.75 0.258,-0.5 0.387,-1.25 0.387,-2.25 0,-1 -0.129,-1.753 -0.387,-2.25 -0.253,-0.5 -0.636,-0.75 -1.148,-0.75 z m 0,-0.781 c 0.816,0 1.441,0.32 1.875,0.969 0.43,0.644 0.645,1.582 0.645,2.812 0,1.231 -0.215,2.164 -0.645,2.813 -0.434,0.644 -1.059,0.969 -1.875,0.969 -0.816,0 -1.441,-0.325 -1.871,-0.969 -0.434,-0.649 -0.649,-1.582 -0.649,-2.813 0,-1.23 0.215,-2.168 0.649,-2.812 0.43,-0.649 1.055,-0.969 1.871,-0.969 z" /></g><g
       id="g362"><g
         clip-path="url(#clipPath368)"
         id="g364"><g
           id="g370"><g
             id="g372"><g
               clip-path="url(#clipPath378)"
               id="g374"><g
                 id="g380"><g
                   id="g382"><path
                     id="path384"
                     style="fill:none;stroke:#b0b0b0;stroke-width:0.80000001;stroke-linecap:square;stroke-linejoin:round;stroke-miterlimit:4;stroke-dasharray:none;stroke-opacity:1"
                     d="m 58.852,138.227 h 334.8" /></g></g></g></g></g></g></g><g
       id="g386"><g
         id="g388"><path
           id="path390"
           style="fill:none;stroke:#000000;stroke-width:0.80000001;stroke-linecap:butt;stroke-linejoin:round;stroke-miterlimit:4;stroke-dasharray:none;stroke-opacity:1"
           d="m 58.852,138.227 h -3.5" /></g><path
         id="path392"
         style="fill:#000000;fill-opacity:1;fill-rule:nonzero;stroke:none"
         d="m 23.344,137.988 c -0.446,0 -0.797,0.153 -1.055,0.457 -0.258,0.301 -0.387,0.715 -0.387,1.243 0,0.523 0.129,0.937 0.387,1.242 0.258,0.304 0.609,0.457 1.055,0.457 0.441,0 0.793,-0.153 1.051,-0.457 0.257,-0.305 0.386,-0.719 0.386,-1.242 0,-0.528 -0.129,-0.942 -0.386,-1.243 -0.258,-0.304 -0.61,-0.457 -1.051,-0.457 z m 1.957,-3.09 v 0.899 c -0.25,-0.117 -0.5,-0.207 -0.75,-0.27 -0.254,-0.062 -0.504,-0.093 -0.75,-0.093 -0.653,0 -1.149,0.218 -1.492,0.66 -0.344,0.437 -0.539,1.101 -0.59,1.992 0.191,-0.285 0.433,-0.5 0.722,-0.652 0.293,-0.153 0.61,-0.227 0.957,-0.227 0.735,0 1.313,0.223 1.739,0.668 0.426,0.445 0.636,1.047 0.636,1.813 0,0.75 -0.222,1.351 -0.664,1.804 -0.441,0.449 -1.031,0.676 -1.765,0.676 -0.844,0 -1.489,-0.324 -1.938,-0.969 -0.445,-0.644 -0.668,-1.582 -0.668,-2.808 0,-1.153 0.274,-2.075 0.821,-2.758 0.546,-0.688 1.281,-1.028 2.203,-1.028 0.246,0 0.496,0.024 0.75,0.075 0.25,0.047 0.515,0.121 0.789,0.218 z" /><path
         id="path394"
         style="fill:#000000;fill-opacity:1;fill-rule:nonzero;stroke:none"
         d="m 29.582,135.387 c -0.508,0 -0.891,0.25 -1.144,0.75 -0.258,0.496 -0.383,1.25 -0.383,2.254 0,0.996 0.125,1.746 0.383,2.246 0.253,0.5 0.636,0.75 1.144,0.75 0.512,0 0.895,-0.25 1.148,-0.75 0.258,-0.5 0.387,-1.25 0.387,-2.246 0,-1.004 -0.129,-1.758 -0.387,-2.254 -0.253,-0.5 -0.636,-0.75 -1.148,-0.75 z m 0,-0.782 c 0.816,0 1.441,0.325 1.871,0.969 0.434,0.645 0.649,1.586 0.649,2.817 0,1.226 -0.215,2.164 -0.649,2.808 -0.43,0.645 -1.055,0.969 -1.871,0.969 -0.816,0 -1.441,-0.324 -1.871,-0.969 -0.434,-0.644 -0.648,-1.582 -0.648,-2.808 0,-1.231 0.214,-2.172 0.648,-2.817 0.43,-0.644 1.055,-0.969 1.871,-0.969 z" /><path
         id="path396"
         style="fill:#000000;fill-opacity:1;fill-rule:nonzero;stroke:none"
         d="m 35.945,135.387 c -0.507,0 -0.89,0.25 -1.148,0.75 -0.254,0.496 -0.383,1.25 -0.383,2.254 0,0.996 0.129,1.746 0.383,2.246 0.258,0.5 0.641,0.75 1.148,0.75 0.508,0 0.895,-0.25 1.149,-0.75 0.258,-0.5 0.383,-1.25 0.383,-2.246 0,-1.004 -0.125,-1.758 -0.383,-2.254 -0.254,-0.5 -0.641,-0.75 -1.149,-0.75 z m 0,-0.782 c 0.817,0 1.442,0.325 1.871,0.969 0.434,0.645 0.649,1.586 0.649,2.817 0,1.226 -0.215,2.164 -0.649,2.808 -0.429,0.645 -1.054,0.969 -1.871,0.969 -0.82,0 -1.441,-0.324 -1.875,-0.969 -0.429,-0.644 -0.644,-1.582 -0.644,-2.808 0,-1.231 0.215,-2.172 0.644,-2.817 0.434,-0.644 1.055,-0.969 1.875,-0.969 z" /><path
         id="path398"
         style="fill:#000000;fill-opacity:1;fill-rule:nonzero;stroke:none"
         d="m 42.305,135.387 c -0.508,0 -0.887,0.25 -1.145,0.75 -0.254,0.496 -0.383,1.25 -0.383,2.254 0,0.996 0.129,1.746 0.383,2.246 0.258,0.5 0.637,0.75 1.145,0.75 0.511,0 0.894,-0.25 1.152,-0.75 0.254,-0.5 0.383,-1.25 0.383,-2.246 0,-1.004 -0.129,-1.758 -0.383,-2.254 -0.258,-0.5 -0.641,-0.75 -1.152,-0.75 z m 0,-0.782 c 0.82,0 1.441,0.325 1.875,0.969 0.429,0.645 0.644,1.586 0.644,2.817 0,1.226 -0.215,2.164 -0.644,2.808 -0.434,0.645 -1.055,0.969 -1.875,0.969 -0.817,0 -1.442,-0.324 -1.871,-0.969 -0.43,-0.644 -0.649,-1.582 -0.649,-2.808 0,-1.231 0.219,-2.172 0.649,-2.817 0.429,-0.644 1.054,-0.969 1.871,-0.969 z" /><path
         id="path400"
         style="fill:#000000;fill-opacity:1;fill-rule:nonzero;stroke:none"
         d="m 48.668,135.387 c -0.508,0 -0.891,0.25 -1.145,0.75 -0.257,0.496 -0.382,1.25 -0.382,2.254 0,0.996 0.125,1.746 0.382,2.246 0.254,0.5 0.637,0.75 1.145,0.75 0.512,0 0.895,-0.25 1.148,-0.75 0.258,-0.5 0.387,-1.25 0.387,-2.246 0,-1.004 -0.129,-1.758 -0.387,-2.254 -0.253,-0.5 -0.636,-0.75 -1.148,-0.75 z m 0,-0.782 c 0.816,0 1.441,0.325 1.875,0.969 0.43,0.645 0.645,1.586 0.645,2.817 0,1.226 -0.215,2.164 -0.645,2.808 -0.434,0.645 -1.059,0.969 -1.875,0.969 -0.816,0 -1.441,-0.324 -1.871,-0.969 -0.434,-0.644 -0.649,-1.582 -0.649,-2.808 0,-1.231 0.215,-2.172 0.649,-2.817 0.43,-0.644 1.055,-0.969 1.871,-0.969 z" /></g><g
       id="g402"><g
         clip-path="url(#clipPath408)"
         id="g404"><g
           id="g410"><g
             id="g412"><g
               clip-path="url(#clipPath418)"
               id="g414"><g
                 id="g420"><g
                   id="g422"><path
                     id="path424"
                     style="fill:none;stroke:#b0b0b0;stroke-width:0.80000001;stroke-linecap:square;stroke-linejoin:round;stroke-miterlimit:4;stroke-dasharray:none;stroke-opacity:1"
                     d="m 58.852,97.422 h 334.8" /></g></g></g></g></g></g></g><g
       id="g426"><g
         id="g428"><path
           id="path430"
           style="fill:none;stroke:#000000;stroke-width:0.80000001;stroke-linecap:butt;stroke-linejoin:round;stroke-miterlimit:4;stroke-dasharray:none;stroke-opacity:1"
           d="m 58.852,97.422 h -3.5" /></g><path
         id="path432"
         style="fill:#000000;fill-opacity:1;fill-rule:nonzero;stroke:none"
         d="m 23.219,97.758 c -0.469,0 -0.836,0.129 -1.106,0.379 -0.269,0.25 -0.402,0.593 -0.402,1.035 0,0.437 0.133,0.785 0.402,1.035 0.27,0.25 0.637,0.375 1.106,0.375 0.469,0 0.84,-0.125 1.109,-0.379 0.27,-0.25 0.406,-0.598 0.406,-1.031 0,-0.442 -0.136,-0.785 -0.406,-1.035 -0.265,-0.25 -0.637,-0.379 -1.109,-0.379 z M 22.234,97.34 c -0.425,-0.102 -0.754,-0.301 -0.992,-0.59 -0.234,-0.289 -0.351,-0.645 -0.351,-1.062 0,-0.583 0.207,-1.04 0.621,-1.379 0.418,-0.34 0.984,-0.508 1.707,-0.508 0.726,0 1.297,0.168 1.711,0.508 0.41,0.339 0.617,0.796 0.617,1.379 0,0.417 -0.117,0.773 -0.352,1.062 -0.238,0.289 -0.566,0.488 -0.984,0.59 0.477,0.113 0.844,0.328 1.109,0.652 0.266,0.321 0.399,0.715 0.399,1.18 0,0.707 -0.215,1.25 -0.649,1.625 -0.429,0.379 -1.047,0.566 -1.851,0.566 -0.805,0 -1.422,-0.187 -1.852,-0.566 -0.433,-0.375 -0.648,-0.918 -0.648,-1.625 0,-0.465 0.133,-0.859 0.398,-1.18 0.27,-0.324 0.641,-0.539 1.117,-0.652 z m -0.363,-1.559 c 0,0.379 0.117,0.672 0.356,0.883 0.234,0.215 0.566,0.32 0.992,0.32 0.426,0 0.754,-0.105 0.992,-0.32 0.242,-0.211 0.359,-0.504 0.359,-0.883 0,-0.375 -0.117,-0.672 -0.359,-0.883 -0.238,-0.21 -0.566,-0.316 -0.992,-0.316 -0.426,0 -0.758,0.106 -0.992,0.316 -0.239,0.211 -0.356,0.508 -0.356,0.883 z" /><path
         id="path434"
         style="fill:#000000;fill-opacity:1;fill-rule:nonzero;stroke:none"
         d="m 29.582,94.582 c -0.508,0 -0.891,0.25 -1.144,0.75 -0.258,0.5 -0.383,1.25 -0.383,2.254 0,0.996 0.125,1.746 0.383,2.246 0.253,0.5 0.636,0.75 1.144,0.75 0.512,0 0.895,-0.25 1.148,-0.75 0.258,-0.5 0.387,-1.25 0.387,-2.246 0,-1.004 -0.129,-1.754 -0.387,-2.254 -0.253,-0.5 -0.636,-0.75 -1.148,-0.75 z m 0,-0.781 c 0.816,0 1.441,0.324 1.871,0.969 0.434,0.648 0.649,1.585 0.649,2.816 0,1.227 -0.215,2.164 -0.649,2.809 -0.43,0.648 -1.055,0.968 -1.871,0.968 -0.816,0 -1.441,-0.32 -1.871,-0.968 -0.434,-0.645 -0.648,-1.582 -0.648,-2.809 0,-1.231 0.214,-2.168 0.648,-2.816 0.43,-0.645 1.055,-0.969 1.871,-0.969 z" /><path
         id="path436"
         style="fill:#000000;fill-opacity:1;fill-rule:nonzero;stroke:none"
         d="m 35.945,94.582 c -0.507,0 -0.89,0.25 -1.148,0.75 -0.254,0.5 -0.383,1.25 -0.383,2.254 0,0.996 0.129,1.746 0.383,2.246 0.258,0.5 0.641,0.75 1.148,0.75 0.508,0 0.895,-0.25 1.149,-0.75 0.258,-0.5 0.383,-1.25 0.383,-2.246 0,-1.004 -0.125,-1.754 -0.383,-2.254 -0.254,-0.5 -0.641,-0.75 -1.149,-0.75 z m 0,-0.781 c 0.817,0 1.442,0.324 1.871,0.969 0.434,0.648 0.649,1.585 0.649,2.816 0,1.227 -0.215,2.164 -0.649,2.809 -0.429,0.648 -1.054,0.968 -1.871,0.968 -0.82,0 -1.441,-0.32 -1.875,-0.968 -0.429,-0.645 -0.644,-1.582 -0.644,-2.809 0,-1.231 0.215,-2.168 0.644,-2.816 0.434,-0.645 1.055,-0.969 1.875,-0.969 z" /><path
         id="path438"
         style="fill:#000000;fill-opacity:1;fill-rule:nonzero;stroke:none"
         d="m 42.305,94.582 c -0.508,0 -0.887,0.25 -1.145,0.75 -0.254,0.5 -0.383,1.25 -0.383,2.254 0,0.996 0.129,1.746 0.383,2.246 0.258,0.5 0.637,0.75 1.145,0.75 0.511,0 0.894,-0.25 1.152,-0.75 0.254,-0.5 0.383,-1.25 0.383,-2.246 0,-1.004 -0.129,-1.754 -0.383,-2.254 -0.258,-0.5 -0.641,-0.75 -1.152,-0.75 z m 0,-0.781 c 0.82,0 1.441,0.324 1.875,0.969 0.429,0.648 0.644,1.585 0.644,2.816 0,1.227 -0.215,2.164 -0.644,2.809 -0.434,0.648 -1.055,0.968 -1.875,0.968 -0.817,0 -1.442,-0.32 -1.871,-0.968 -0.43,-0.645 -0.649,-1.582 -0.649,-2.809 0,-1.231 0.219,-2.168 0.649,-2.816 0.429,-0.645 1.054,-0.969 1.871,-0.969 z" /><path
         id="path440"
         style="fill:#000000;fill-opacity:1;fill-rule:nonzero;stroke:none"
         d="m 48.668,94.582 c -0.508,0 -0.891,0.25 -1.145,0.75 -0.257,0.5 -0.382,1.25 -0.382,2.254 0,0.996 0.125,1.746 0.382,2.246 0.254,0.5 0.637,0.75 1.145,0.75 0.512,0 0.895,-0.25 1.148,-0.75 0.258,-0.5 0.387,-1.25 0.387,-2.246 0,-1.004 -0.129,-1.754 -0.387,-2.254 -0.253,-0.5 -0.636,-0.75 -1.148,-0.75 z m 0,-0.781 c 0.816,0 1.441,0.324 1.875,0.969 0.43,0.648 0.645,1.585 0.645,2.816 0,1.227 -0.215,2.164 -0.645,2.809 -0.434,0.648 -1.059,0.968 -1.875,0.968 -0.816,0 -1.441,-0.32 -1.871,-0.968 -0.434,-0.645 -0.649,-1.582 -0.649,-2.809 0,-1.231 0.215,-2.168 0.649,-2.816 0.43,-0.645 1.055,-0.969 1.871,-0.969 z" /></g><g
       id="g442"><g
         clip-path="url(#clipPath448)"
         id="g444"><g
           id="g450"><g
             id="g452"><g
               clip-path="url(#clipPath458)"
               id="g454"><g
                 id="g460"><g
                   id="g462"><path
                     id="path464"
                     style="fill:none;stroke:#b0b0b0;stroke-width:0.80000001;stroke-linecap:square;stroke-linejoin:round;stroke-miterlimit:4;stroke-dasharray:none;stroke-opacity:1"
                     d="m 58.852,56.617 h 334.8" /></g></g></g></g></g></g></g><g
       id="g466"><g
         id="g468"><path
           id="path470"
           style="fill:none;stroke:#000000;stroke-width:0.80000001;stroke-linecap:butt;stroke-linejoin:round;stroke-miterlimit:4;stroke-dasharray:none;stroke-opacity:1"
           d="m 58.852,56.617 h -3.5" /></g><path
         id="path472"
         style="fill:#000000;fill-opacity:1;fill-rule:nonzero;stroke:none"
         d="m 14.918,59.59 h 1.613 v -5.563 l -1.754,0.352 V 53.48 l 1.743,-0.351 h 0.988 v 6.461 h 1.609 v 0.828 h -4.199 z" /><path
         id="path474"
         style="fill:#000000;fill-opacity:1;fill-rule:nonzero;stroke:none"
         d="m 23.219,53.777 c -0.508,0 -0.891,0.25 -1.145,0.75 -0.258,0.5 -0.383,1.25 -0.383,2.254 0,1 0.125,1.746 0.383,2.246 0.254,0.5 0.637,0.75 1.145,0.75 0.511,0 0.894,-0.25 1.148,-0.75 0.258,-0.5 0.387,-1.246 0.387,-2.246 0,-1.004 -0.129,-1.754 -0.387,-2.254 -0.254,-0.5 -0.637,-0.75 -1.148,-0.75 z m 0,-0.781 c 0.816,0 1.441,0.324 1.875,0.969 0.429,0.648 0.644,1.586 0.644,2.816 0,1.227 -0.215,2.164 -0.644,2.809 -0.434,0.648 -1.059,0.969 -1.875,0.969 -0.817,0 -1.442,-0.321 -1.871,-0.969 -0.434,-0.645 -0.649,-1.582 -0.649,-2.809 0,-1.23 0.215,-2.168 0.649,-2.816 0.429,-0.645 1.054,-0.969 1.871,-0.969 z" /><path
         id="path476"
         style="fill:#000000;fill-opacity:1;fill-rule:nonzero;stroke:none"
         d="m 29.582,53.777 c -0.508,0 -0.891,0.25 -1.144,0.75 -0.258,0.5 -0.383,1.25 -0.383,2.254 0,1 0.125,1.746 0.383,2.246 0.253,0.5 0.636,0.75 1.144,0.75 0.512,0 0.895,-0.25 1.148,-0.75 0.258,-0.5 0.387,-1.246 0.387,-2.246 0,-1.004 -0.129,-1.754 -0.387,-2.254 -0.253,-0.5 -0.636,-0.75 -1.148,-0.75 z m 0,-0.781 c 0.816,0 1.441,0.324 1.871,0.969 0.434,0.648 0.649,1.586 0.649,2.816 0,1.227 -0.215,2.164 -0.649,2.809 -0.43,0.648 -1.055,0.969 -1.871,0.969 -0.816,0 -1.441,-0.321 -1.871,-0.969 -0.434,-0.645 -0.648,-1.582 -0.648,-2.809 0,-1.23 0.214,-2.168 0.648,-2.816 0.43,-0.645 1.055,-0.969 1.871,-0.969 z" /><path
         id="path478"
         style="fill:#000000;fill-opacity:1;fill-rule:nonzero;stroke:none"
         d="m 35.941,53.777 c -0.503,0 -0.886,0.25 -1.144,0.75 -0.254,0.5 -0.383,1.25 -0.383,2.254 0,1 0.129,1.746 0.383,2.246 0.258,0.5 0.641,0.75 1.144,0.75 0.512,0 0.899,-0.25 1.153,-0.75 0.254,-0.5 0.383,-1.246 0.383,-2.246 0,-1.004 -0.129,-1.754 -0.383,-2.254 -0.254,-0.5 -0.641,-0.75 -1.153,-0.75 z m 0,-0.781 c 0.821,0 1.446,0.324 1.875,0.969 0.43,0.648 0.649,1.586 0.649,2.816 0,1.227 -0.219,2.164 -0.649,2.809 -0.429,0.648 -1.054,0.969 -1.875,0.969 -0.816,0 -1.437,-0.321 -1.871,-0.969 -0.429,-0.645 -0.644,-1.582 -0.644,-2.809 0,-1.23 0.215,-2.168 0.644,-2.816 0.434,-0.645 1.055,-0.969 1.871,-0.969 z" /><path
         id="path480"
         style="fill:#000000;fill-opacity:1;fill-rule:nonzero;stroke:none"
         d="m 42.305,53.777 c -0.508,0 -0.887,0.25 -1.145,0.75 -0.254,0.5 -0.383,1.25 -0.383,2.254 0,1 0.129,1.746 0.383,2.246 0.258,0.5 0.637,0.75 1.145,0.75 0.511,0 0.894,-0.25 1.152,-0.75 0.254,-0.5 0.383,-1.246 0.383,-2.246 0,-1.004 -0.129,-1.754 -0.383,-2.254 -0.258,-0.5 -0.641,-0.75 -1.152,-0.75 z m 0,-0.781 c 0.82,0 1.441,0.324 1.875,0.969 0.429,0.648 0.644,1.586 0.644,2.816 0,1.227 -0.215,2.164 -0.644,2.809 -0.434,0.648 -1.055,0.969 -1.875,0.969 -0.817,0 -1.442,-0.321 -1.871,-0.969 -0.43,-0.645 -0.649,-1.582 -0.649,-2.809 0,-1.23 0.219,-2.168 0.649,-2.816 0.429,-0.645 1.054,-0.969 1.871,-0.969 z" /><path
         id="path482"
         style="fill:#000000;fill-opacity:1;fill-rule:nonzero;stroke:none"
         d="m 48.668,53.777 c -0.508,0 -0.891,0.25 -1.145,0.75 -0.257,0.5 -0.382,1.25 -0.382,2.254 0,1 0.125,1.746 0.382,2.246 0.254,0.5 0.637,0.75 1.145,0.75 0.512,0 0.895,-0.25 1.148,-0.75 0.258,-0.5 0.387,-1.246 0.387,-2.246 0,-1.004 -0.129,-1.754 -0.387,-2.254 -0.253,-0.5 -0.636,-0.75 -1.148,-0.75 z m 0,-0.781 c 0.816,0 1.441,0.324 1.875,0.969 0.43,0.648 0.645,1.586 0.645,2.816 0,1.227 -0.215,2.164 -0.645,2.809 -0.434,0.648 -1.059,0.969 -1.875,0.969 -0.816,0 -1.441,-0.321 -1.871,-0.969 -0.434,-0.645 -0.649,-1.582 -0.649,-2.809 0,-1.23 0.215,-2.168 0.649,-2.816 0.43,-0.645 1.055,-0.969 1.871,-0.969 z" /><path
         id="path484"
         style="fill:#000000;fill-opacity:1;fill-rule:nonzero;stroke:none"
         d="M 3.18,195.527 C 2.777,195.301 2.477,195.031 2.285,194.719 2.094,194.406 2,194.039 2,193.617 c 0,-0.57 0.199,-1.008 0.598,-1.32 0.398,-0.309 0.965,-0.461 1.699,-0.461 h 3.301 v 0.902 h -3.27 c -0.527,0 -0.914,0.094 -1.168,0.278 -0.254,0.187 -0.379,0.468 -0.379,0.851 0,0.465 0.153,0.832 0.461,1.102 0.309,0.273 0.731,0.406 1.266,0.406 h 3.09 v 0.902 h -3.27 c -0.527,0 -0.918,0.094 -1.172,0.278 -0.25,0.187 -0.375,0.472 -0.375,0.859 0,0.461 0.153,0.828 0.465,1.098 0.309,0.269 0.731,0.402 1.262,0.402 h 3.09 v 0.906 H 2.129 v -0.906 H 2.98 C 2.645,198.711 2.398,198.465 2.238,198.18 2.078,197.891 2,197.551 2,197.156 c 0,-0.394 0.098,-0.734 0.301,-1.011 0.203,-0.278 0.496,-0.485 0.879,-0.618 z" /><path
         id="path486"
         style="fill:#000000;fill-opacity:1;fill-rule:nonzero;stroke:none"
         d="m 2.758,187.926 c 0,0.48 0.191,0.859 0.566,1.14 0.375,0.282 0.891,0.422 1.543,0.422 0.656,0 1.172,-0.14 1.547,-0.418 0.375,-0.281 0.563,-0.66 0.563,-1.144 0,-0.481 -0.188,-0.86 -0.563,-1.137 -0.379,-0.281 -0.894,-0.422 -1.547,-0.422 -0.644,0 -1.16,0.141 -1.539,0.422 -0.379,0.277 -0.57,0.656 -0.57,1.137 z m -0.758,0 c 0,-0.781 0.254,-1.395 0.762,-1.84 0.508,-0.449 1.211,-0.672 2.105,-0.672 0.895,0 1.598,0.223 2.11,0.672 0.507,0.445 0.765,1.059 0.765,1.84 0,0.785 -0.258,1.398 -0.765,1.844 -0.512,0.441 -1.215,0.664 -2.11,0.664 -0.894,0 -1.597,-0.223 -2.105,-0.664 C 2.254,189.324 2,188.711 2,187.926 Z" /><path
         id="path488"
         style="fill:#000000;fill-opacity:1;fill-rule:nonzero;stroke:none"
         d="m 4.297,179.379 h 3.301 v 0.898 h -3.27 c -0.519,0 -0.906,0.102 -1.164,0.301 -0.254,0.203 -0.383,0.508 -0.383,0.91 0,0.485 0.153,0.867 0.461,1.149 0.309,0.281 0.731,0.418 1.266,0.418 h 3.09 v 0.906 H 2.129 v -0.906 H 2.98 C 2.652,182.84 2.406,182.586 2.242,182.297 2.078,182.004 2,181.668 2,181.289 c 0,-0.629 0.191,-1.105 0.582,-1.426 0.387,-0.324 0.961,-0.484 1.715,-0.484 z" /><path
         id="path490"
         style="fill:#000000;fill-opacity:1;fill-rule:nonzero;stroke:none"
         d="m 4.641,172.91 h 0.437 v 4.129 c 0.617,-0.039 1.09,-0.223 1.414,-0.559 0.324,-0.332 0.485,-0.796 0.485,-1.394 0,-0.344 -0.039,-0.676 -0.125,-1 -0.086,-0.324 -0.211,-0.648 -0.383,-0.969 H 7.32 c 0.137,0.324 0.243,0.656 0.313,0.992 0.07,0.34 0.109,0.684 0.109,1.032 0,0.871 -0.254,1.562 -0.762,2.074 -0.507,0.508 -1.195,0.762 -2.062,0.762 -0.895,0 -1.605,-0.239 -2.129,-0.723 C 2.262,176.77 2,176.117 2,175.297 c 0,-0.734 0.234,-1.317 0.711,-1.746 0.473,-0.426 1.113,-0.641 1.93,-0.641 z m -0.266,0.899 c -0.492,0.004 -0.883,0.144 -1.176,0.41 -0.293,0.269 -0.441,0.625 -0.441,1.07 0,0.5 0.144,0.902 0.426,1.203 0.285,0.301 0.683,0.473 1.199,0.52 z" /><path
         id="path492"
         style="fill:#000000;fill-opacity:1;fill-rule:nonzero;stroke:none"
         d="m 8.105,169.16 c 0.653,0.254 1.079,0.5 1.274,0.742 0.199,0.243 0.301,0.563 0.301,0.965 v 0.719 H 8.926 v -0.527 c 0,-0.246 -0.059,-0.438 -0.176,-0.575 -0.117,-0.136 -0.395,-0.289 -0.828,-0.457 l -0.41,-0.16 -5.383,2.211 v -0.949 l 4.277,-1.711 -4.277,-1.711 v -0.949 z" /><path
         id="path494"
         style="fill:#000000;fill-opacity:1;fill-rule:nonzero;stroke:none"
         d="m 2.289,158.852 h 0.852 c -0.129,0.253 -0.227,0.515 -0.293,0.793 -0.067,0.269 -0.098,0.554 -0.098,0.847 0,0.446 0.066,0.781 0.203,1.004 0.137,0.223 0.344,0.336 0.617,0.336 0.207,0 0.371,-0.082 0.493,-0.242 0.117,-0.156 0.23,-0.481 0.335,-0.961 l 0.071,-0.309 c 0.136,-0.636 0.328,-1.09 0.578,-1.359 0.25,-0.27 0.598,-0.402 1.043,-0.402 0.508,0 0.91,0.199 1.207,0.601 0.297,0.403 0.445,0.957 0.445,1.66 0,0.293 -0.031,0.598 -0.086,0.914 -0.058,0.321 -0.144,0.653 -0.258,1.004 H 6.469 c 0.176,-0.332 0.304,-0.66 0.39,-0.98 0.086,-0.324 0.129,-0.641 0.129,-0.957 0,-0.426 -0.074,-0.75 -0.218,-0.977 -0.145,-0.226 -0.348,-0.344 -0.614,-0.344 -0.242,0 -0.429,0.083 -0.558,0.25 -0.133,0.161 -0.258,0.524 -0.379,1.079 l -0.071,0.312 c -0.117,0.559 -0.296,0.961 -0.539,1.207 -0.246,0.246 -0.578,0.371 -1,0.371 -0.515,0 -0.91,-0.183 -1.191,-0.547 C 2.137,161.789 2,161.27 2,160.598 c 0,-0.328 0.023,-0.641 0.07,-0.934 0.051,-0.293 0.121,-0.566 0.219,-0.812 z" /><path
         id="path496"
         style="fill:#000000;fill-opacity:1;fill-rule:nonzero;stroke:none"
         d="M 5.441,157.219 H 2.129 v -0.899 h 3.277 c 0.52,0 0.907,-0.097 1.164,-0.3 0.262,-0.2 0.391,-0.504 0.391,-0.911 0,-0.484 -0.156,-0.867 -0.465,-1.148 -0.308,-0.281 -0.73,-0.422 -1.266,-0.422 H 2.129 v -0.898 h 5.469 v 0.898 h -0.84 c 0.332,0.219 0.578,0.473 0.742,0.758 0.16,0.289 0.242,0.625 0.242,1.004 0,0.629 -0.195,1.105 -0.586,1.433 -0.39,0.325 -0.965,0.485 -1.715,0.485 z" /><path
         id="path498"
         style="fill:#000000;fill-opacity:1;fill-rule:nonzero;stroke:none"
         d="M 6.777,149.922 H 9.68 v 0.902 H 2.129 v -0.902 H 2.961 C 2.633,149.73 2.395,149.492 2.234,149.207 2.078,148.918 2,148.574 2,148.172 c 0,-0.664 0.262,-1.203 0.789,-1.617 0.527,-0.414 1.219,-0.625 2.078,-0.625 0.86,0 1.555,0.211 2.082,0.625 0.528,0.414 0.793,0.953 0.793,1.617 0,0.402 -0.082,0.746 -0.238,1.035 -0.16,0.285 -0.402,0.523 -0.727,0.715 z m -1.91,-3.059 c -0.66,0 -1.176,0.137 -1.554,0.41 -0.375,0.27 -0.563,0.645 -0.563,1.118 0,0.476 0.188,0.851 0.563,1.125 0.378,0.269 0.894,0.406 1.554,0.406 0.66,0 1.18,-0.137 1.555,-0.406 0.379,-0.274 0.566,-0.649 0.566,-1.125 0,-0.473 -0.187,-0.848 -0.566,-1.118 -0.375,-0.273 -0.895,-0.41 -1.555,-0.41 z" /><path
         id="path500"
         style="fill:#000000;fill-opacity:1;fill-rule:nonzero;stroke:none"
         d="M 6.777,143.574 H 9.68 v 0.903 H 2.129 v -0.903 H 2.961 C 2.633,143.383 2.395,143.145 2.234,142.859 2.078,142.57 2,142.227 2,141.824 c 0,-0.664 0.262,-1.203 0.789,-1.617 0.527,-0.414 1.219,-0.625 2.078,-0.625 0.86,0 1.555,0.211 2.082,0.625 0.528,0.414 0.793,0.953 0.793,1.617 0,0.403 -0.082,0.746 -0.238,1.035 -0.16,0.286 -0.402,0.524 -0.727,0.715 z m -1.91,-3.058 c -0.66,0 -1.176,0.136 -1.554,0.41 -0.375,0.269 -0.563,0.644 -0.563,1.117 0,0.477 0.188,0.852 0.563,1.125 0.378,0.27 0.894,0.406 1.554,0.406 0.66,0 1.18,-0.136 1.555,-0.406 0.379,-0.273 0.566,-0.648 0.566,-1.125 0,-0.473 -0.187,-0.848 -0.566,-1.117 -0.375,-0.274 -0.895,-0.41 -1.555,-0.41 z" /><path
         id="path502"
         style="fill:#000000;fill-opacity:1;fill-rule:nonzero;stroke:none"
         d="m 0,137.195 h 7.598 v 0.898 H 0 Z" /><path
         id="path504"
         style="fill:#000000;fill-opacity:1;fill-rule:nonzero;stroke:none"
         d="m 8.105,133.043 c 0.653,0.254 1.079,0.5 1.274,0.742 0.199,0.238 0.301,0.563 0.301,0.965 v 0.719 H 8.926 v -0.528 c 0,-0.246 -0.059,-0.441 -0.176,-0.574 -0.117,-0.14 -0.395,-0.289 -0.828,-0.457 l -0.41,-0.16 -5.383,2.211 v -0.953 l 4.277,-1.707 -4.277,-1.711 v -0.949 z" /><path
         id="path506"
         style="fill:#000000;fill-opacity:1;fill-rule:nonzero;stroke:none"
         d="m 0,126.305 v -2.071 h 0.699 v 1.172 h 7.52 v -1.172 h 0.699 v 2.071 z" /><path
         id="path508"
         style="fill:#000000;fill-opacity:1;fill-rule:nonzero;stroke:none"
         d="m 0.578,121.43 h 1.551 v -1.852 h 0.699 v 1.852 h 2.969 c 0.445,0 0.73,-0.063 0.859,-0.184 0.129,-0.121 0.192,-0.371 0.192,-0.746 v -0.922 h 0.75 v 0.922 c 0,0.695 -0.129,1.176 -0.387,1.438 -0.258,0.261 -0.731,0.394 -1.414,0.394 H 2.828 v 0.66 H 2.129 v -0.66 H 0.578 Z" /><path
         id="path510"
         style="fill:#000000;fill-opacity:1;fill-rule:nonzero;stroke:none"
         d="m 2.758,116.277 c 0,0.485 0.191,0.864 0.566,1.145 0.375,0.281 0.891,0.418 1.543,0.418 0.656,0 1.172,-0.137 1.547,-0.414 0.375,-0.281 0.563,-0.664 0.563,-1.149 0,-0.476 -0.188,-0.855 -0.563,-1.136 -0.379,-0.278 -0.894,-0.418 -1.547,-0.418 -0.644,0 -1.16,0.14 -1.539,0.418 -0.379,0.281 -0.57,0.66 -0.57,1.136 z m -0.758,0 c 0,-0.781 0.254,-1.394 0.762,-1.839 0.508,-0.446 1.211,-0.668 2.105,-0.668 0.895,0 1.598,0.222 2.11,0.668 0.507,0.445 0.765,1.058 0.765,1.839 0,0.786 -0.258,1.403 -0.765,1.844 -0.512,0.445 -1.215,0.668 -2.11,0.668 -0.894,0 -1.597,-0.223 -2.105,-0.668 C 2.254,117.68 2,117.063 2,116.277 Z" /><path
         id="path512"
         style="fill:#000000;fill-opacity:1;fill-rule:nonzero;stroke:none"
         d="m 0,112.313 v -0.903 h 4.488 l -2.359,-2.68 v -1.148 l 2.559,2.902 2.91,-3.023 v 1.172 L 4.93,111.41 h 2.668 v 0.903 z" /><path
         id="path514"
         style="fill:#000000;fill-opacity:1;fill-rule:nonzero;stroke:none"
         d="m 4.641,101.816 h 0.437 v 4.129 c 0.617,-0.039 1.09,-0.226 1.414,-0.558 0.324,-0.332 0.485,-0.797 0.485,-1.395 0,-0.344 -0.039,-0.679 -0.125,-1 -0.086,-0.324 -0.211,-0.648 -0.383,-0.969 H 7.32 c 0.137,0.325 0.243,0.657 0.313,0.993 0.07,0.339 0.109,0.683 0.109,1.031 0,0.871 -0.254,1.562 -0.762,2.074 -0.507,0.508 -1.195,0.762 -2.062,0.762 -0.895,0 -1.605,-0.242 -2.129,-0.723 C 2.262,105.676 2,105.023 2,104.203 c 0,-0.734 0.234,-1.316 0.711,-1.746 0.473,-0.426 1.113,-0.641 1.93,-0.641 z m -0.266,0.899 c -0.492,0.004 -0.883,0.144 -1.176,0.41 -0.293,0.27 -0.441,0.625 -0.441,1.07 0,0.5 0.144,0.899 0.426,1.203 0.285,0.301 0.683,0.473 1.199,0.52 z" /><path
         id="path516"
         style="fill:#000000;fill-opacity:1;fill-rule:nonzero;stroke:none"
         d="m 4.297,95.793 h 3.301 v 0.898 h -3.27 c -0.519,0 -0.906,0.102 -1.164,0.305 -0.254,0.203 -0.383,0.504 -0.383,0.906 0,0.489 0.153,0.871 0.461,1.149 0.309,0.281 0.731,0.422 1.266,0.422 h 3.09 v 0.902 H 2.129 V 99.473 H 2.98 C 2.652,99.258 2.406,99.004 2.242,98.715 2.078,98.422 2,98.086 2,97.703 2,97.074 2.191,96.602 2.582,96.277 2.969,95.957 3.543,95.793 4.297,95.793 Z" /><path
         id="path518"
         style="fill:#000000;fill-opacity:1;fill-rule:nonzero;stroke:none"
         d="M 2.289,90.516 H 3.141 C 3.012,90.77 2.914,91.035 2.848,91.309 2.781,91.582 2.75,91.863 2.75,92.156 c 0,0.449 0.066,0.782 0.203,1.004 0.137,0.223 0.344,0.336 0.617,0.336 0.207,0 0.371,-0.082 0.493,-0.238 0.117,-0.16 0.23,-0.481 0.335,-0.965 l 0.071,-0.309 c 0.136,-0.636 0.328,-1.089 0.578,-1.359 0.25,-0.266 0.598,-0.402 1.043,-0.402 0.508,0 0.91,0.203 1.207,0.605 0.297,0.402 0.445,0.953 0.445,1.656 0,0.293 -0.031,0.598 -0.086,0.914 -0.058,0.321 -0.144,0.653 -0.258,1.004 H 6.469 c 0.176,-0.332 0.304,-0.66 0.39,-0.98 0.086,-0.32 0.129,-0.641 0.129,-0.957 0,-0.422 -0.074,-0.75 -0.218,-0.977 -0.145,-0.226 -0.348,-0.34 -0.614,-0.34 -0.242,0 -0.429,0.082 -0.558,0.247 -0.133,0.164 -0.258,0.523 -0.379,1.082 l -0.071,0.312 c -0.117,0.555 -0.296,0.957 -0.539,1.203 -0.246,0.25 -0.578,0.371 -1,0.371 -0.515,0 -0.91,-0.179 -1.191,-0.547 C 2.137,93.453 2,92.934 2,92.266 2,91.934 2.023,91.621 2.07,91.328 2.121,91.035 2.191,90.766 2.289,90.516 Z" /><path
         id="path520"
         style="fill:#000000;fill-opacity:1;fill-rule:nonzero;stroke:none"
         d="m 0,86.691 h 8.918 v 2.071 H 8.219 v -1.164 h -7.52 v 1.164 H 0 Z" /></g><g
       id="g522"><g
         clip-path="url(#clipPath528)"
         id="g524"><g
           id="g530"><g
             id="g532"><g
               clip-path="url(#clipPath538)"
               id="g534"><g
                 id="g540"><g
                   id="g542"><path
                     id="path544"
                     style="fill:none;stroke:#1f77b4;stroke-width:1.5;stroke-linecap:square;stroke-linejoin:round;stroke-miterlimit:4;stroke-dasharray:none;stroke-opacity:1"
                     d="m 74.07,240.238 4.282,1.879 0.105,-20.359 0.109,0.094 3.957,3.316 0.215,0.172 0.106,-20.317 0.105,0.133 3.641,4.375 0.535,0.614 0.105,-20.282 0.106,0.172 3.426,5.25 0.746,1.098 0.109,-20.25 0.106,0.207 3.425,6.269 0.747,1.305 0.109,-20.215 0.105,0.235 3.317,6.976 0.855,1.715 0.11,-20.187 0.105,0.257 3.317,7.789 0.855,1.914 0.105,-20.164 0.11,0.286 3.316,8.523 0.856,2.094 0.105,-20.141 0.11,0.309 3.316,9.183 0.855,2.262 0.106,-20.121 0.109,0.328 3.207,9.481 0.965,2.714 0.106,-20.105 0.105,0.348 3.211,10.011 0.965,2.864 0.105,-20.086 0.106,0.363 3.211,10.488 0.961,3.004 0.109,-20.074 0.106,0.379 3.21,10.922 0.961,3.129 0.11,-20.059 0.105,0.391 3.211,11.316 0.961,3.238 0.109,-20.047 0.106,0.403 3.211,11.672 0.961,3.339 0.105,-20.035 0.11,0.414 3.211,11.996 0.961,3.434 0.105,-20.027 0.109,0.425 3.207,12.286 0.965,3.515 0.106,-20.015 0.109,0.433 3.207,12.551 0.965,3.59 0.105,-20.008 0.11,0.441 3.207,12.793 0.965,3.657 0.105,-20 0.106,0.453 3.211,13.004 0.964,3.722 0.106,-19.992 0.105,0.453 3.211,13.203 0.961,3.778 0.11,-19.985 0.105,0.461 3.211,13.383 0.961,3.828 0.109,-19.984 0.106,0.469 3.211,13.543 0.961,3.875 0.109,-19.977 0.106,0.473 3.21,13.687 0.961,3.918 0.106,-19.972 0.109,0.476 3.207,13.82 0.965,3.954 0.106,-19.969 0.109,0.484 3.207,13.938 0.965,3.988 0.105,-19.965 0.11,0.488 3.207,14.047 0.965,4.02 0.105,-19.961 0.105,0.488 3.211,14.149 0.965,4.046 0.106,-19.957 0.105,0.493 3.211,14.234 0.961,4.07 0.109,-19.953 0.106,0.496 3.211,14.313 0.961,4.097 0.109,-19.953 0.106,0.5 3.211,14.387 0.961,4.117 0.109,-19.949 0.105,0.5 3.211,14.453 0.961,4.137 0.106,-19.949 0.109,0.5 3.211,14.515 0.961,4.153 0.105,-19.946 0.11,0.504 3.207,14.567 0.965,4.171 0.105,-19.945 0.11,0.504 3.207,14.617 0.964,4.184 0.106,-19.942 0.109,0.504 3.207,14.664 0.965,4.196 0.106,-19.942 0.105,0.508 3.211,14.703 0.965,4.207 0.105,-19.941 0.106,0.508 3.211,14.738 0.961,4.219 0.109,-19.938 0.105,0.508 3.211,14.773 0.961,4.227 0.11,-19.938 0.105,0.512 3.211,14.801 0.961,4.234 0.109,-19.937 0.106,0.515 3.211,14.829 0.961,4.242 0.105,-19.938 0.11,0.516 3.207,14.851 0.965,4.25 0.105,-19.937 0.109,0.516 3.207,14.875 0.965,4.257 0.106,-19.933 0.109,0.515 3.207,14.895 0.965,4.262 0.105,-19.934 0.106,0.516 3.211,14.914 0.965,4.265 0.105,-19.933 0.106,0.515 3.211,14.93 0.96,4.274 0.11,-19.934 0.105,0.516 3.211,14.945 0.961,4.277 0.11,-19.933 0.105,0.519 3.211,14.957 0.961,4.281 0.109,-19.933 0.106,0.519 3.211,14.969 0.961,4.285 0.105,-19.933 0.109,0.519 3.211,14.985 0.961,4.285 0.106,-19.93 0.109,0.516 3.207,14.992 0.965,4.289 0.106,-19.93 0.109,0.52 3.207,15 0.965,4.293 0.105,-19.93 0.11,0.52 3.207,15.007 0.965,4.297 0.105,-19.933 0.105,0.519 3.211,15.02 0.965,4.297 0.106,-19.934 0.105,0.52 3.211,15.023 0.961,4.301 0.109,-19.93 0.106,0.52 3.211,15.031 0.961,4.301 0.109,-19.934 0.106,0.524 3.211,15.035 0.96,4.3 0.11,-19.929 0.105,0.519 3.211,15.043 0.961,4.301 0.106,-19.93 0.109,0.524 3.207,15.043 0.965,4.304 0.105,-19.929 0.11,0.519 3.207,15.051 0.965,4.305 0.105,-19.93 0.109,0.524 3.208,15.05 0.964,4.309 0.106,-19.93 0.105,0.52 3.211,15.058 0.965,4.309 0.106,-19.93 0.105,0.52 3.211,15.058 0.961,4.309 0.109,-19.93 0.106,0.524 3.211,15.062 0.961,4.309 0.109,-19.93 0.105,0.524 3.211,15.062 0.961,4.313 0.11,-19.93 0.105,0.519 3.211,15.067 0.961,4.312 0.109,-19.929 0.106,0.523 3.211,15.066 0.961,4.313 0.105,-19.93 0.11,0.524 3.207,15.07 0.964,4.313 0.106,-19.93 0.109,0.523 3.207,15.071 0.965,4.312 0.106,-19.926 0.109,0.52 1.602,7.672" /></g></g></g></g></g></g></g><g
       id="g546"><g
         id="g548"><path
           id="path550"
           style="fill:none;stroke:#000000;stroke-width:0.80000001;stroke-linecap:square;stroke-linejoin:miter;stroke-miterlimit:4;stroke-dasharray:none;stroke-opacity:1"
           d="M 58.852,252 V 34.559" /></g><g
         id="g552"><path
           id="path554"
           style="fill:none;stroke:#000000;stroke-width:0.80000001;stroke-linecap:square;stroke-linejoin:miter;stroke-miterlimit:4;stroke-dasharray:none;stroke-opacity:1"
           d="M 393.652,252 V 34.559" /></g><g
         id="g556"><path
           id="path558"
           style="fill:none;stroke:#000000;stroke-width:0.80000001;stroke-linecap:square;stroke-linejoin:miter;stroke-miterlimit:4;stroke-dasharray:none;stroke-opacity:1"
           d="m 58.852,252 h 334.8" /></g><g
         id="g560"><path
           id="path562"
           style="fill:none;stroke:#000000;stroke-width:0.80000001;stroke-linecap:square;stroke-linejoin:miter;stroke-miterlimit:4;stroke-dasharray:none;stroke-opacity:1"
           d="m 58.852,34.559 h 334.8" /></g></g></g></svg>